<svg width="40" height="40" viewBox="0 0 40 40" fill="none" xmlns="http://www.w3.org/2000/svg">
<g clip-path="url(#clip0)">
<path d="M20.4167 20C19.7267 20 19.1667 19.44 19.1667 18.75V17.5H7.5V18.75C7.5 19.44 6.94 20 6.25 20C5.56 20 5 19.44 5 18.75V16.25C5 15.56 5.56 15 6.25 15H20.4167C21.1067 15 21.6667 15.56 21.6667 16.25V18.75C21.6667 19.44 21.1067 20 20.4167 20Z" fill="white"/>
<path d="M13.3333 31.25C12.6433 31.25 12.0833 30.69 12.0833 30V16.6667C12.0833 15.9767 12.6433 15.4167 13.3333 15.4167C14.0233 15.4167 14.5833 15.9767 14.5833 16.6667V30C14.5833 30.69 14.0233 31.25 13.3333 31.25Z" fill="white"/>
<path d="M15.4167 31.6667H11.25C10.56 31.6667 10 31.1067 10 30.4167C10 29.7267 10.56 29.1667 11.25 29.1667H15.4167C16.1067 29.1667 16.6667 29.7267 16.6667 30.4167C16.6667 31.1067 16.1067 31.6667 15.4167 31.6667Z" fill="white"/>
<path d="M33.75 17.5H26.25C25.56 17.5 25 16.94 25 16.25C25 15.56 25.56 15 26.25 15H33.75C34.44 15 35 15.56 35 16.25C35 16.94 34.44 17.5 33.75 17.5Z" fill="white"/>
<path d="M33.75 24.1667H26.25C25.56 24.1667 25 23.6067 25 22.9167C25 22.2267 25.56 21.6667 26.25 21.6667H33.75C34.44 21.6667 35 22.2267 35 22.9167C35 23.6067 34.44 24.1667 33.75 24.1667Z" fill="white"/>
<path d="M33.75 30.8333H26.25C25.56 30.8333 25 30.2733 25 29.5833C25 28.8933 25.56 28.3333 26.25 28.3333H33.75C34.44 28.3333 35 28.8933 35 29.5833C35 30.2733 34.44 30.8333 33.75 30.8333Z" fill="white"/>
<path d="M35.4167 38.3334H4.58333C2.055 38.3334 0 36.2784 0 33.75V6.25002C0 3.72169 2.055 1.66669 4.58333 1.66669H35.4167C37.945 1.66669 40 3.72169 40 6.25002V33.75C40 36.2784 37.945 38.3334 35.4167 38.3334ZM4.58333 4.16669C3.435 4.16669 2.5 5.10169 2.5 6.25002V33.75C2.5 34.8983 3.435 35.8334 4.58333 35.8334H35.4167C36.565 35.8334 37.5 34.8983 37.5 33.75V6.25002C37.5 5.10169 36.565 4.16669 35.4167 4.16669H4.58333Z" fill="white"/>
<path d="M38.75 10H1.25C0.56 10 0 9.44 0 8.75C0 8.06 0.56 7.5 1.25 7.5H38.75C39.44 7.5 40 8.06 40 8.75C40 9.44 39.44 10 38.75 10Z" fill="white"/>
</g>
<defs>
<clipPath id="clip0">
<rect width="40" height="40" fill="white"/>
</clipPath>
</defs>
</svg>
