<svg width="155" height="32" viewBox="0 0 155 32" fill="none" xmlns="http://www.w3.org/2000/svg">
<path d="M51.28 9.832V21H49.04V13.736L46.048 21H44.352L41.344 13.736V21H39.104V9.832H41.648L45.2 18.136L48.752 9.832H51.28ZM54.9186 16.536C54.9186 15.64 55.0946 14.8453 55.4466 14.152C55.8093 13.4587 56.2946 12.9253 56.9026 12.552C57.5213 12.1787 58.2093 11.992 58.9666 11.992C59.628 11.992 60.204 12.1253 60.6946 12.392C61.196 12.6587 61.596 12.9947 61.8946 13.4V12.136H64.1506V21H61.8946V19.704C61.6066 20.12 61.2066 20.4667 60.6946 20.744C60.1933 21.0107 59.612 21.144 58.9506 21.144C58.204 21.144 57.5213 20.952 56.9026 20.568C56.2946 20.184 55.8093 19.6453 55.4466 18.952C55.0946 18.248 54.9186 17.4427 54.9186 16.536ZM61.8946 16.568C61.8946 16.024 61.788 15.56 61.5746 15.176C61.3613 14.7813 61.0733 14.4827 60.7106 14.28C60.348 14.0667 59.9586 13.96 59.5426 13.96C59.1266 13.96 58.7426 14.0613 58.3906 14.264C58.0386 14.4667 57.7506 14.7653 57.5266 15.16C57.3133 15.544 57.2066 16.0027 57.2066 16.536C57.2066 17.0693 57.3133 17.5387 57.5266 17.944C57.7506 18.3387 58.0386 18.6427 58.3906 18.856C58.7533 19.0693 59.1373 19.176 59.5426 19.176C59.9586 19.176 60.348 19.0747 60.7106 18.872C61.0733 18.6587 61.3613 18.36 61.5746 17.976C61.788 17.5813 61.8946 17.112 61.8946 16.568ZM70.9464 13.976V18.264C70.9464 18.5627 71.0157 18.7813 71.1544 18.92C71.3037 19.048 71.549 19.112 71.8904 19.112H72.9304V21H71.5224C69.6344 21 68.6904 20.0827 68.6904 18.248V13.976H67.6344V12.136H68.6904V9.944H70.9464V12.136H72.9304V13.976H70.9464ZM75.9655 16.536C75.9655 15.64 76.1415 14.8453 76.4935 14.152C76.8562 13.4587 77.3415 12.9253 77.9495 12.552C78.5682 12.1787 79.2562 11.992 80.0135 11.992C80.6748 11.992 81.2508 12.1253 81.7415 12.392C82.2428 12.6587 82.6428 12.9947 82.9415 13.4V12.136H85.1975V21H82.9415V19.704C82.6535 20.12 82.2535 20.4667 81.7415 20.744C81.2402 21.0107 80.6588 21.144 79.9975 21.144C79.2508 21.144 78.5682 20.952 77.9495 20.568C77.3415 20.184 76.8562 19.6453 76.4935 18.952C76.1415 18.248 75.9655 17.4427 75.9655 16.536ZM82.9415 16.568C82.9415 16.024 82.8348 15.56 82.6215 15.176C82.4082 14.7813 82.1202 14.4827 81.7575 14.28C81.3948 14.0667 81.0055 13.96 80.5895 13.96C80.1735 13.96 79.7895 14.0613 79.4375 14.264C79.0855 14.4667 78.7975 14.7653 78.5735 15.16C78.3602 15.544 78.2535 16.0027 78.2535 16.536C78.2535 17.0693 78.3602 17.5387 78.5735 17.944C78.7975 18.3387 79.0855 18.6427 79.4375 18.856C79.8002 19.0693 80.1842 19.176 80.5895 19.176C81.0055 19.176 81.3948 19.0747 81.7575 18.872C82.1202 18.6587 82.4082 18.36 82.6215 17.976C82.8348 17.5813 82.9415 17.112 82.9415 16.568ZM90.3773 21.112C89.9719 21.112 89.6359 20.9893 89.3693 20.744C89.1133 20.488 88.9853 20.1733 88.9853 19.8C88.9853 19.4267 89.1133 19.1173 89.3693 18.872C89.6359 18.616 89.9719 18.488 90.3773 18.488C90.7719 18.488 91.0973 18.616 91.3533 18.872C91.6093 19.1173 91.7373 19.4267 91.7373 19.8C91.7373 20.1733 91.6093 20.488 91.3533 20.744C91.0973 20.9893 90.7719 21.112 90.3773 21.112ZM106.55 12.008C107.638 12.008 108.512 12.344 109.174 13.016C109.846 13.6773 110.182 14.6053 110.182 15.8V21H107.942V16.104C107.942 15.4107 107.766 14.8827 107.414 14.52C107.062 14.1467 106.582 13.96 105.974 13.96C105.366 13.96 104.88 14.1467 104.518 14.52C104.166 14.8827 103.99 15.4107 103.99 16.104V21H101.75V16.104C101.75 15.4107 101.574 14.8827 101.222 14.52C100.87 14.1467 100.39 13.96 99.7815 13.96C99.1628 13.96 98.6722 14.1467 98.3095 14.52C97.9575 14.8827 97.7815 15.4107 97.7815 16.104V21H95.5415V12.136H97.7815V13.208C98.0695 12.8347 98.4375 12.5413 98.8855 12.328C99.3442 12.1147 99.8455 12.008 100.39 12.008C101.083 12.008 101.702 12.1573 102.246 12.456C102.79 12.744 103.211 13.16 103.51 13.704C103.798 13.192 104.214 12.7813 104.758 12.472C105.312 12.1627 105.91 12.008 106.55 12.008ZM122.675 12.136V21H120.419V19.88C120.131 20.264 119.752 20.568 119.283 20.792C118.824 21.0053 118.323 21.112 117.779 21.112C117.086 21.112 116.472 20.968 115.939 20.68C115.406 20.3813 114.984 19.9493 114.675 19.384C114.376 18.808 114.227 18.1253 114.227 17.336V12.136H116.467V17.016C116.467 17.72 116.643 18.264 116.995 18.648C117.347 19.0213 117.827 19.208 118.435 19.208C119.054 19.208 119.539 19.0213 119.891 18.648C120.243 18.264 120.419 17.72 120.419 17.016V12.136H122.675Z" fill="#44444F"/>
<circle cx="21.9333" cy="16.4" r="3.16667" transform="rotate(-180 21.9333 16.4)" stroke="#2BFAD9" stroke-width="3"/>
<circle cx="21.9333" cy="16.4" r="3.16667" transform="rotate(-180 21.9333 16.4)" stroke="url(#paint0_linear)" stroke-width="3"/>
<circle cx="18.6667" cy="15.9333" r="7.83333" stroke="#363BF1" stroke-width="3"/>
<circle cx="18.6667" cy="15.9333" r="7.83333" stroke="url(#paint1_linear)" stroke-width="3"/>
<circle cx="14" cy="15" r="12.5" transform="rotate(-90 14 15)" stroke="#373BF1" stroke-width="3"/>
<circle cx="14" cy="15" r="12.5" transform="rotate(-90 14 15)" stroke="url(#paint2_linear)" stroke-width="3"/>
<defs>
<linearGradient id="paint0_linear" x1="19.9539" y1="11.6383" x2="14.3274" y2="30.3934" gradientUnits="userSpaceOnUse">
<stop stop-color="#2BFADC"/>
<stop offset="1" stop-color="#354CED"/>
</linearGradient>
<linearGradient id="paint1_linear" x1="11.407" y1="20.8831" x2="39.7324" y2="8.58611" gradientUnits="userSpaceOnUse">
<stop stop-color="#29F2BE"/>
<stop offset="1" stop-color="#373BF1"/>
</linearGradient>
<linearGradient id="paint2_linear" x1="0.805082" y1="23.5061" x2="28" y2="23.8667" gradientUnits="userSpaceOnUse">
<stop stop-color="#29F3C5"/>
<stop offset="1" stop-color="#363EEF"/>
</linearGradient>
</defs>
</svg>
